<?xml version="1.0" encoding="UTF-8" standalone="no"?>
<svg
   xmlns:dc="http://purl.org/dc/elements/1.1/"
   xmlns:cc="http://creativecommons.org/ns#"
   xmlns:rdf="http://www.w3.org/1999/02/22-rdf-syntax-ns#"
   xmlns:svg="http://www.w3.org/2000/svg"
   xmlns="http://www.w3.org/2000/svg"
   xmlns:sodipodi="http://sodipodi.sourceforge.net/DTD/sodipodi-0.dtd"
   xmlns:inkscape="http://www.inkscape.org/namespaces/inkscape"
   sodipodi:docname="Lifecycle_logo_yellow.svg"
   inkscape:version="1.0 (4035a4fb49, 2020-05-01)"
   id="svg8"
   version="1.1"
   viewBox="0 0 75.969429 22.254663"
   height="22.254663mm"
   width="75.969429mm">
  <defs
     id="defs2" />
  <sodipodi:namedview
     inkscape:window-maximized="1"
     inkscape:window-y="-8"
     inkscape:window-x="-8"
     inkscape:window-height="1027"
     inkscape:window-width="1920"
     showgrid="false"
     inkscape:document-rotation="0"
     inkscape:current-layer="text844"
     inkscape:document-units="mm"
     inkscape:cy="12.460697"
     inkscape:cx="191.62236"
     inkscape:zoom="2.8"
     inkscape:pageshadow="2"
     inkscape:pageopacity="0.0"
     borderopacity="1.0"
     bordercolor="#666666"
     pagecolor="#ffffff"
     id="base"
     fit-margin-top="0"
     fit-margin-left="0"
     fit-margin-right="0"
     fit-margin-bottom="0" />
  <metadata
     id="metadata5">
    <rdf:RDF>
      <cc:Work
         rdf:about="">
        <dc:format>image/svg+xml</dc:format>
        <dc:type
           rdf:resource="http://purl.org/dc/dcmitype/StillImage" />
        <dc:title></dc:title>
      </cc:Work>
    </rdf:RDF>
  </metadata>
  <g
     id="layer1"
     inkscape:groupmode="layer"
     inkscape:label="Layer 1"
     transform="translate(-74.013493,-92.424647)">
    <g
       style="font-style:normal;font-variant:normal;font-weight:normal;font-stretch:normal;font-size:4.23333px;line-height:6.61458px;font-family:Arial;-inkscape-font-specification:Arial;letter-spacing:0px;word-spacing:0px;fill:#000000;fill-opacity:1;stroke:none;stroke-width:0.264583"
       id="text844"
       aria-label="Lifecycle">
      <path
         sodipodi:nodetypes="ccccccc"
         id="path846"
         style="stroke-width:1.4821;fill:#e5d981;fill-opacity:1"
         d="M 74.013493,112.65299 V 92.714118 h 2.246304 v 17.935732 h 32.073583 v 2.00314 z" />
      <path
         id="path848"
         style="stroke-width:1.4821;fill:#e5d981;fill-opacity:1"
         d="m 81.87151,95.110949 v -2.396831 h 2.084203 v 2.396831 z m 0,14.577841 V 97.391995 h 2.084203 v 12.296795 z" />
      <path
         id="path850"
         style="stroke-width:1.4821;fill:#e5d981;fill-opacity:1"
         d="M 86.889227,109.68879 V 99.013045 h -1.84105 v -1.62105 h 1.84105 v -1.308417 q 0,-1.238943 0.21997,-1.841047 0.30104,-0.810525 1.05369,-1.308415 0.7642,-0.509469 2.13051,-0.509469 0.88,0 1.94526,0.208437 l -0.31263,1.81789 q -0.64841,-0.115778 -1.22736,-0.115778 -0.94947,0 -1.34315,0.40528 -0.39368,0.405279 -0.39368,1.516834 v 1.134735 h 2.39683 v 1.62104 h -2.39683 v 10.675745 z" />
      <path
         sodipodi:nodetypes="cccsscsssssccssscccccscc"
         id="path852"
         style="stroke-width:1.4821;fill:#e5d981;fill-opacity:1"
         d="m 100.07599,105.72879 1.1105,-0.42745 1.04319,0.69376 c -0.33963,1.25824 -0.96877,2.23474 -1.88737,2.92947 -0.918593,0.69474 -2.091923,1.04211 -3.519983,1.04211 -1.79859,0 -3.22666,-0.55195 -4.2842,-1.6558 -1.04982,-1.11157 -1.57473,-2.667 -1.57473,-4.6663 0,-2.06876 0.53261,-3.674365 1.59789,-4.816815 1.06526,-1.14245 2.447,-1.713676 4.14525,-1.713676 1.64421,0 2.98735,0.559656 4.029463,1.678936 1.0421,1.1193 1.56314,2.694015 1.56314,4.724195 0,0.12346 -0.004,0.30876 -0.0124,0.5558 h -9.170493 c 0.0772,1.35087 0.45928,2.38526 1.1463,3.10315 0.68702,0.71788 1.54387,1.07683 2.57052,1.07683 0.7642,0 1.41649,-0.20071 1.95684,-0.60211 0.54034,-0.40139 0.96877,-1.04208 1.285263,-1.9221 z m -6.843123,-3.36945 h 6.866293 c -0.0926,-1.03439 -0.355093,-1.81017 -0.787373,-2.32736 -0.66385,-0.802805 -1.52455,-1.204205 -2.5821,-1.204205 -0.9572,0 -1.76384,0.32036 -2.41998,0.96105 -0.64842,0.640695 -1.00738,1.497525 -1.07684,2.570515 z" />
      <path
         sodipodi:nodetypes="ccccscsscsccccscsssssc"
         id="path854"
         style="stroke-width:1.4821;fill:#e5d981;fill-opacity:1"
         d="m 112.53806,105.1846 1.06069,-0.4269 0.98877,0.69321 c -0.22384,1.41262 -0.79891,2.52034 -1.72526,3.32314 -0.91859,0.79508 -2.04946,1.19263 -3.39262,1.19263 -1.68279,0 -3.03752,-0.54806 -4.06419,-1.64422 -1.01894,-1.10385 -1.52842,-2.68243 -1.52842,-4.73576 0,-1.32772 0.21998,-2.48947 0.66001,-3.48525 0.44001,-0.995785 1.10772,-1.740695 2.00315,-2.234725 0.90316,-0.50174 1.8835,-0.75263 2.94103,-0.75263 1.33545,0 2.42772,0.33963 3.27685,1.01894 0.84911,0.67158 1.39332,1.62877 1.63261,2.871565 l -2.02631,0.31264 c -0.19298,-0.82597 -0.53652,-1.447365 -1.03053,-1.864205 -0.48633,-0.41682 -1.07683,-0.62526 -1.77155,-0.62526 -1.04982,0 -1.90282,0.37822 -2.55896,1.13473 -0.65612,0.748765 -0.98419,1.937535 -0.98419,3.566305 0,1.65193 0.31649,2.85227 0.94946,3.60104 0.63299,0.74875 1.45895,1.12315 2.47789,1.12315 0.81825,0 1.5014,-0.25091 2.04946,-0.75263 0.54808,-0.50175 0.89545,-1.27368 1.04211,-2.31579 z" />
      <path
         sodipodi:nodetypes="ccsscccccccccccccssc"
         id="path856"
         style="stroke-width:1.4821;fill:#e5d981;fill-opacity:1"
         d="m 108.5765,112.60501 -0.23157,-1.95683 c 0.45541,0.12346 7.24455,2.0048 7.58419,2.0048 0.46314,0 0.83368,-0.0772 1.11158,-0.23158 0.27789,-0.15432 0.5056,-0.37055 0.68316,-0.64842 0.13126,-0.20844 0.34348,-0.7256 0.63684,-1.55156 0.0387,-0.11583 0.10039,-0.28564 0.18524,-0.50948 l -4.6663,-12.319945 h 2.2463 l 2.55894,7.121015 c 0.3319,0.90317 0.62912,1.85262 0.89158,2.84841 0.2393,-0.95719 0.52493,-1.89121 0.85684,-2.80209 l 2.62841,-7.167335 h 2.08421 l -4.67788,12.505205 c -0.50175,1.35087 -0.89158,2.28105 -1.16947,2.79053 -0.37055,0.687 -0.7951,1.18876 -1.27368,1.50525 -0.47861,0.32422 -1.04982,0.48633 -1.71369,0.48633 -0.4014,0 -7.84803,-1.56429 -7.7347,-2.07424 z" />
      <path
         sodipodi:nodetypes="ccccscsscsccccscsssssc"
         id="path858"
         style="stroke-width:1.4821;fill:#e5d981;fill-opacity:1"
         d="m 132.88365,105.1846 1.12597,-0.41844 0.92349,0.68475 c -0.22407,1.41262 -0.79916,2.52034 -1.7253,3.32314 -0.91859,0.79508 -2.04956,1.19263 -3.39294,1.19263 -1.68289,0 -3.03767,-0.54806 -4.06434,-1.64422 -1.01894,-1.10385 -1.5284,-2.68243 -1.5284,-4.73576 0,-1.32772 0.21997,-2.48947 0.65998,-3.48525 0.44002,-0.995785 1.10772,-1.740695 2.00317,-2.234725 0.90314,-0.50174 1.88352,-0.75263 2.94114,-0.75263 1.33568,0 2.42807,0.33963 3.27722,1.01894 0.84911,0.67158 1.39332,1.62877 1.63263,2.871565 l -2.02632,0.31264 c -0.19309,-0.82597 -0.53658,-1.447365 -1.03054,-1.864205 -0.48633,-0.41682 -1.07699,-0.62526 -1.77191,-0.62526 -1.04991,0 -1.90294,0.37822 -2.55908,1.13473 -0.65614,0.748765 -0.9842,1.937535 -0.9842,3.566305 0,1.65193 0.31648,2.85227 0.94947,3.60104 0.63297,0.74875 1.45897,1.12315 2.478,1.12315 0.81844,0 1.50172,-0.25091 2.04983,-0.75263 0.54806,-0.50175 0.89545,-1.27368 1.04213,-2.31579 z" />
      <path
         id="path860"
         style="stroke-width:1.4821;fill:#e5d981;fill-opacity:1"
         d="M 135.76372,109.68879 V 92.714118 h 2.08421 v 16.974672 z" />
      <path
         sodipodi:nodetypes="cccsscsssssccssscccccscc"
         id="path862"
         style="stroke-width:1.4821;fill:#e5d981;fill-opacity:1"
         d="m 147.7598,105.72879 1.05827,-0.5308 1.09539,0.79711 c -0.34001,1.25824 -0.96897,2.23472 -1.88735,2.92945 -0.91861,0.69474 -2.09193,1.04211 -3.51996,1.04211 -1.79863,0 -3.22667,-0.55193 -4.2842,-1.65578 -1.04981,-1.11158 -1.57473,-2.66702 -1.57473,-4.66631 0,-2.06876 0.53271,-3.674365 1.59788,-4.816815 1.06525,-1.14245 2.44701,-1.713676 4.14527,-1.713676 1.64419,0 2.98735,0.559656 4.02942,1.678936 1.04207,1.1193 1.56313,2.694025 1.56313,4.724195 0,0.12345 -0.004,0.30877 -0.0106,0.55579 h -9.1705 c 0.0773,1.35087 0.45933,2.38526 1.14631,3.10315 0.68699,0.71788 1.54382,1.07683 2.57049,1.07683 0.76422,0 1.41647,-0.2007 1.95687,-0.60209 0.54055,-0.40141 0.96875,-1.0421 1.28524,-1.9221 z m -6.84313,-3.36945 h 6.86626 c -0.0924,-1.03439 -0.35513,-1.81017 -0.78736,-2.32736 -0.66386,-0.802805 -1.52453,-1.204205 -2.58207,-1.204205 -0.95721,0 -1.76384,0.32036 -2.41996,0.96105 -0.64846,0.640695 -1.00741,1.497525 -1.07687,2.570515 z" />
    </g>
  </g>
</svg>
